<mxfile host="app.diagrams.net" agent="Mozilla/5.0 (Windows NT 10.0; Win64; x64) AppleWebKit/537.36 (KHTML, like Gecko) Chrome/134.0.0.0 Safari/537.36" version="26.1.1">
  <diagram id="R2lEEEUBdFMjLlhIrx00" name="Page-1">
    <mxGraphModel dx="1290" dy="625" grid="1" gridSize="10" guides="1" tooltips="1" connect="1" arrows="1" fold="1" page="1" pageScale="1" pageWidth="827" pageHeight="1169" math="0" shadow="0" extFonts="Permanent Marker^https://fonts.googleapis.com/css?family=Permanent+Marker">
      <root>
        <mxCell id="0" />
        <mxCell id="1" parent="0" />
        <mxCell id="C-vyLk0tnHw3VtMMgP7b-2" value="Customer" style="shape=table;startSize=30;container=1;collapsible=1;childLayout=tableLayout;fixedRows=1;rowLines=0;fontStyle=1;align=center;resizeLast=1;" parent="1" vertex="1">
          <mxGeometry x="460" y="20" width="282" height="160" as="geometry" />
        </mxCell>
        <mxCell id="C-vyLk0tnHw3VtMMgP7b-3" value="" style="shape=partialRectangle;collapsible=0;dropTarget=0;pointerEvents=0;fillColor=none;points=[[0,0.5],[1,0.5]];portConstraint=eastwest;top=0;left=0;right=0;bottom=1;" parent="C-vyLk0tnHw3VtMMgP7b-2" vertex="1">
          <mxGeometry y="30" width="282" height="30" as="geometry" />
        </mxCell>
        <mxCell id="C-vyLk0tnHw3VtMMgP7b-4" value="PK" style="shape=partialRectangle;overflow=hidden;connectable=0;fillColor=none;top=0;left=0;bottom=0;right=0;fontStyle=1;" parent="C-vyLk0tnHw3VtMMgP7b-3" vertex="1">
          <mxGeometry width="30" height="30" as="geometry">
            <mxRectangle width="30" height="30" as="alternateBounds" />
          </mxGeometry>
        </mxCell>
        <mxCell id="C-vyLk0tnHw3VtMMgP7b-5" value="customerId int NOT NULL " style="shape=partialRectangle;overflow=hidden;connectable=0;fillColor=none;top=0;left=0;bottom=0;right=0;align=left;spacingLeft=6;fontStyle=5;" parent="C-vyLk0tnHw3VtMMgP7b-3" vertex="1">
          <mxGeometry x="30" width="252" height="30" as="geometry">
            <mxRectangle width="252" height="30" as="alternateBounds" />
          </mxGeometry>
        </mxCell>
        <mxCell id="C-vyLk0tnHw3VtMMgP7b-6" value="" style="shape=partialRectangle;collapsible=0;dropTarget=0;pointerEvents=0;fillColor=none;points=[[0,0.5],[1,0.5]];portConstraint=eastwest;top=0;left=0;right=0;bottom=0;" parent="C-vyLk0tnHw3VtMMgP7b-2" vertex="1">
          <mxGeometry y="60" width="282" height="30" as="geometry" />
        </mxCell>
        <mxCell id="C-vyLk0tnHw3VtMMgP7b-7" value="" style="shape=partialRectangle;overflow=hidden;connectable=0;fillColor=none;top=0;left=0;bottom=0;right=0;" parent="C-vyLk0tnHw3VtMMgP7b-6" vertex="1">
          <mxGeometry width="30" height="30" as="geometry">
            <mxRectangle width="30" height="30" as="alternateBounds" />
          </mxGeometry>
        </mxCell>
        <mxCell id="C-vyLk0tnHw3VtMMgP7b-8" value="title VARCHAR (NOT NULL)" style="shape=partialRectangle;overflow=hidden;connectable=0;fillColor=none;top=0;left=0;bottom=0;right=0;align=left;spacingLeft=6;" parent="C-vyLk0tnHw3VtMMgP7b-6" vertex="1">
          <mxGeometry x="30" width="252" height="30" as="geometry">
            <mxRectangle width="252" height="30" as="alternateBounds" />
          </mxGeometry>
        </mxCell>
        <mxCell id="cVbe3402FyO1d1cokief-47" value="" style="shape=partialRectangle;collapsible=0;dropTarget=0;pointerEvents=0;fillColor=none;points=[[0,0.5],[1,0.5]];portConstraint=eastwest;top=0;left=0;right=0;bottom=0;" parent="C-vyLk0tnHw3VtMMgP7b-2" vertex="1">
          <mxGeometry y="90" width="282" height="30" as="geometry" />
        </mxCell>
        <mxCell id="cVbe3402FyO1d1cokief-48" value="" style="shape=partialRectangle;overflow=hidden;connectable=0;fillColor=none;top=0;left=0;bottom=0;right=0;" parent="cVbe3402FyO1d1cokief-47" vertex="1">
          <mxGeometry width="30" height="30" as="geometry">
            <mxRectangle width="30" height="30" as="alternateBounds" />
          </mxGeometry>
        </mxCell>
        <mxCell id="cVbe3402FyO1d1cokief-49" value="memebershipTitleÂ VARCHAR CHECK&#xa;(membershipType IN (&#39;Regular&#39;, &#39;Premium&#39;))" style="shape=partialRectangle;overflow=hidden;connectable=0;fillColor=none;top=0;left=0;bottom=0;right=0;align=left;spacingLeft=6;" parent="cVbe3402FyO1d1cokief-47" vertex="1">
          <mxGeometry x="30" width="252" height="30" as="geometry">
            <mxRectangle width="252" height="30" as="alternateBounds" />
          </mxGeometry>
        </mxCell>
        <mxCell id="NPs0PZWvJLxieHYWrK92-25" value="" style="shape=partialRectangle;collapsible=0;dropTarget=0;pointerEvents=0;fillColor=none;points=[[0,0.5],[1,0.5]];portConstraint=eastwest;top=0;left=0;right=0;bottom=0;" parent="C-vyLk0tnHw3VtMMgP7b-2" vertex="1">
          <mxGeometry y="120" width="282" height="30" as="geometry" />
        </mxCell>
        <mxCell id="NPs0PZWvJLxieHYWrK92-26" value="" style="shape=partialRectangle;overflow=hidden;connectable=0;fillColor=none;top=0;left=0;bottom=0;right=0;" parent="NPs0PZWvJLxieHYWrK92-25" vertex="1">
          <mxGeometry width="30" height="30" as="geometry">
            <mxRectangle width="30" height="30" as="alternateBounds" />
          </mxGeometry>
        </mxCell>
        <mxCell id="NPs0PZWvJLxieHYWrK92-27" value="personId int" style="shape=partialRectangle;overflow=hidden;connectable=0;fillColor=none;top=0;left=0;bottom=0;right=0;align=left;spacingLeft=6;" parent="NPs0PZWvJLxieHYWrK92-25" vertex="1">
          <mxGeometry x="30" width="252" height="30" as="geometry">
            <mxRectangle width="252" height="30" as="alternateBounds" />
          </mxGeometry>
        </mxCell>
        <mxCell id="C-vyLk0tnHw3VtMMgP7b-23" value="Books" style="shape=table;startSize=30;container=1;collapsible=1;childLayout=tableLayout;fixedRows=1;rowLines=0;fontStyle=1;align=center;resizeLast=1;" parent="1" vertex="1">
          <mxGeometry x="20" y="20" width="330" height="250" as="geometry">
            <mxRectangle x="20" y="120" width="70" height="30" as="alternateBounds" />
          </mxGeometry>
        </mxCell>
        <mxCell id="C-vyLk0tnHw3VtMMgP7b-24" value="" style="shape=partialRectangle;collapsible=0;dropTarget=0;pointerEvents=0;fillColor=none;points=[[0,0.5],[1,0.5]];portConstraint=eastwest;top=0;left=0;right=0;bottom=1;" parent="C-vyLk0tnHw3VtMMgP7b-23" vertex="1">
          <mxGeometry y="30" width="330" height="30" as="geometry" />
        </mxCell>
        <mxCell id="C-vyLk0tnHw3VtMMgP7b-25" value="PK" style="shape=partialRectangle;overflow=hidden;connectable=0;fillColor=none;top=0;left=0;bottom=0;right=0;fontStyle=1;" parent="C-vyLk0tnHw3VtMMgP7b-24" vertex="1">
          <mxGeometry width="30" height="30" as="geometry">
            <mxRectangle width="30" height="30" as="alternateBounds" />
          </mxGeometry>
        </mxCell>
        <mxCell id="C-vyLk0tnHw3VtMMgP7b-26" value="bookId int NOT NULL" style="shape=partialRectangle;overflow=hidden;connectable=0;fillColor=none;top=0;left=0;bottom=0;right=0;align=left;spacingLeft=6;fontStyle=5;" parent="C-vyLk0tnHw3VtMMgP7b-24" vertex="1">
          <mxGeometry x="30" width="300" height="30" as="geometry">
            <mxRectangle width="300" height="30" as="alternateBounds" />
          </mxGeometry>
        </mxCell>
        <mxCell id="C-vyLk0tnHw3VtMMgP7b-27" value="" style="shape=partialRectangle;collapsible=0;dropTarget=0;pointerEvents=0;fillColor=none;points=[[0,0.5],[1,0.5]];portConstraint=eastwest;top=0;left=0;right=0;bottom=0;" parent="C-vyLk0tnHw3VtMMgP7b-23" vertex="1">
          <mxGeometry y="60" width="330" height="30" as="geometry" />
        </mxCell>
        <mxCell id="C-vyLk0tnHw3VtMMgP7b-28" value="" style="shape=partialRectangle;overflow=hidden;connectable=0;fillColor=none;top=0;left=0;bottom=0;right=0;" parent="C-vyLk0tnHw3VtMMgP7b-27" vertex="1">
          <mxGeometry width="30" height="30" as="geometry">
            <mxRectangle width="30" height="30" as="alternateBounds" />
          </mxGeometry>
        </mxCell>
        <mxCell id="C-vyLk0tnHw3VtMMgP7b-29" value="title varchar NOT NULL" style="shape=partialRectangle;overflow=hidden;connectable=0;fillColor=none;top=0;left=0;bottom=0;right=0;align=left;spacingLeft=6;" parent="C-vyLk0tnHw3VtMMgP7b-27" vertex="1">
          <mxGeometry x="30" width="300" height="30" as="geometry">
            <mxRectangle width="300" height="30" as="alternateBounds" />
          </mxGeometry>
        </mxCell>
        <mxCell id="cVbe3402FyO1d1cokief-7" value="" style="shape=partialRectangle;collapsible=0;dropTarget=0;pointerEvents=0;fillColor=none;points=[[0,0.5],[1,0.5]];portConstraint=eastwest;top=0;left=0;right=0;bottom=0;" parent="C-vyLk0tnHw3VtMMgP7b-23" vertex="1">
          <mxGeometry y="90" width="330" height="30" as="geometry" />
        </mxCell>
        <mxCell id="cVbe3402FyO1d1cokief-8" value="" style="shape=partialRectangle;overflow=hidden;connectable=0;fillColor=none;top=0;left=0;bottom=0;right=0;" parent="cVbe3402FyO1d1cokief-7" vertex="1">
          <mxGeometry width="30" height="30" as="geometry">
            <mxRectangle width="30" height="30" as="alternateBounds" />
          </mxGeometry>
        </mxCell>
        <mxCell id="cVbe3402FyO1d1cokief-9" value="authorId int" style="shape=partialRectangle;overflow=hidden;connectable=0;fillColor=none;top=0;left=0;bottom=0;right=0;align=left;spacingLeft=6;" parent="cVbe3402FyO1d1cokief-7" vertex="1">
          <mxGeometry x="30" width="300" height="30" as="geometry">
            <mxRectangle width="300" height="30" as="alternateBounds" />
          </mxGeometry>
        </mxCell>
        <mxCell id="cVbe3402FyO1d1cokief-23" value="" style="shape=partialRectangle;collapsible=0;dropTarget=0;pointerEvents=0;fillColor=none;points=[[0,0.5],[1,0.5]];portConstraint=eastwest;top=0;left=0;right=0;bottom=0;" parent="C-vyLk0tnHw3VtMMgP7b-23" vertex="1">
          <mxGeometry y="120" width="330" height="30" as="geometry" />
        </mxCell>
        <mxCell id="cVbe3402FyO1d1cokief-24" value="" style="shape=partialRectangle;overflow=hidden;connectable=0;fillColor=none;top=0;left=0;bottom=0;right=0;" parent="cVbe3402FyO1d1cokief-23" vertex="1">
          <mxGeometry width="30" height="30" as="geometry">
            <mxRectangle width="30" height="30" as="alternateBounds" />
          </mxGeometry>
        </mxCell>
        <mxCell id="cVbe3402FyO1d1cokief-25" value="categoryId int" style="shape=partialRectangle;overflow=hidden;connectable=0;fillColor=none;top=0;left=0;bottom=0;right=0;align=left;spacingLeft=6;" parent="cVbe3402FyO1d1cokief-23" vertex="1">
          <mxGeometry x="30" width="300" height="30" as="geometry">
            <mxRectangle width="300" height="30" as="alternateBounds" />
          </mxGeometry>
        </mxCell>
        <mxCell id="cVbe3402FyO1d1cokief-32" value="" style="shape=partialRectangle;collapsible=0;dropTarget=0;pointerEvents=0;fillColor=none;points=[[0,0.5],[1,0.5]];portConstraint=eastwest;top=0;left=0;right=0;bottom=0;" parent="C-vyLk0tnHw3VtMMgP7b-23" vertex="1">
          <mxGeometry y="150" width="330" height="30" as="geometry" />
        </mxCell>
        <mxCell id="cVbe3402FyO1d1cokief-33" value="" style="shape=partialRectangle;overflow=hidden;connectable=0;fillColor=none;top=0;left=0;bottom=0;right=0;" parent="cVbe3402FyO1d1cokief-32" vertex="1">
          <mxGeometry width="30" height="30" as="geometry">
            <mxRectangle width="30" height="30" as="alternateBounds" />
          </mxGeometry>
        </mxCell>
        <mxCell id="cVbe3402FyO1d1cokief-34" value="price intÂ  (check price &gt;0)" style="shape=partialRectangle;overflow=hidden;connectable=0;fillColor=none;top=0;left=0;bottom=0;right=0;align=left;spacingLeft=6;" parent="cVbe3402FyO1d1cokief-32" vertex="1">
          <mxGeometry x="30" width="300" height="30" as="geometry">
            <mxRectangle width="300" height="30" as="alternateBounds" />
          </mxGeometry>
        </mxCell>
        <mxCell id="cVbe3402FyO1d1cokief-35" value="" style="shape=partialRectangle;collapsible=0;dropTarget=0;pointerEvents=0;fillColor=none;points=[[0,0.5],[1,0.5]];portConstraint=eastwest;top=0;left=0;right=0;bottom=0;" parent="C-vyLk0tnHw3VtMMgP7b-23" vertex="1">
          <mxGeometry y="180" width="330" height="30" as="geometry" />
        </mxCell>
        <mxCell id="cVbe3402FyO1d1cokief-36" value="" style="shape=partialRectangle;overflow=hidden;connectable=0;fillColor=none;top=0;left=0;bottom=0;right=0;" parent="cVbe3402FyO1d1cokief-35" vertex="1">
          <mxGeometry width="30" height="30" as="geometry">
            <mxRectangle width="30" height="30" as="alternateBounds" />
          </mxGeometry>
        </mxCell>
        <mxCell id="cVbe3402FyO1d1cokief-37" value="stock intÂ  (check stock &gt;0)" style="shape=partialRectangle;overflow=hidden;connectable=0;fillColor=none;top=0;left=0;bottom=0;right=0;align=left;spacingLeft=6;" parent="cVbe3402FyO1d1cokief-35" vertex="1">
          <mxGeometry x="30" width="300" height="30" as="geometry">
            <mxRectangle width="300" height="30" as="alternateBounds" />
          </mxGeometry>
        </mxCell>
        <mxCell id="cVbe3402FyO1d1cokief-38" value="" style="shape=partialRectangle;collapsible=0;dropTarget=0;pointerEvents=0;fillColor=none;points=[[0,0.5],[1,0.5]];portConstraint=eastwest;top=0;left=0;right=0;bottom=0;" parent="C-vyLk0tnHw3VtMMgP7b-23" vertex="1">
          <mxGeometry y="210" width="330" height="30" as="geometry" />
        </mxCell>
        <mxCell id="cVbe3402FyO1d1cokief-39" value="" style="shape=partialRectangle;overflow=hidden;connectable=0;fillColor=none;top=0;left=0;bottom=0;right=0;" parent="cVbe3402FyO1d1cokief-38" vertex="1">
          <mxGeometry width="30" height="30" as="geometry">
            <mxRectangle width="30" height="30" as="alternateBounds" />
          </mxGeometry>
        </mxCell>
        <mxCell id="cVbe3402FyO1d1cokief-40" value="publishedYear int (check publishedYear &gt;=0)" style="shape=partialRectangle;overflow=hidden;connectable=0;fillColor=none;top=0;left=0;bottom=0;right=0;align=left;spacingLeft=6;" parent="cVbe3402FyO1d1cokief-38" vertex="1">
          <mxGeometry x="30" width="300" height="30" as="geometry">
            <mxRectangle width="300" height="30" as="alternateBounds" />
          </mxGeometry>
        </mxCell>
        <mxCell id="cVbe3402FyO1d1cokief-1" value="" style="shape=partialRectangle;collapsible=0;dropTarget=0;pointerEvents=0;fillColor=none;points=[[0,0.5],[1,0.5]];portConstraint=eastwest;top=0;left=0;right=0;bottom=0;" parent="1" vertex="1">
          <mxGeometry x="20" y="230" width="250" height="30" as="geometry" />
        </mxCell>
        <mxCell id="cVbe3402FyO1d1cokief-2" value="" style="shape=partialRectangle;overflow=hidden;connectable=0;fillColor=none;top=0;left=0;bottom=0;right=0;" parent="cVbe3402FyO1d1cokief-1" vertex="1">
          <mxGeometry width="30" height="30" as="geometry">
            <mxRectangle width="30" height="30" as="alternateBounds" />
          </mxGeometry>
        </mxCell>
        <mxCell id="cVbe3402FyO1d1cokief-50" value="Employee" style="shape=table;startSize=30;container=1;collapsible=1;childLayout=tableLayout;fixedRows=1;rowLines=0;fontStyle=1;align=center;resizeLast=1;" parent="1" vertex="1">
          <mxGeometry x="460" y="210" width="328" height="220" as="geometry" />
        </mxCell>
        <mxCell id="cVbe3402FyO1d1cokief-51" value="" style="shape=partialRectangle;collapsible=0;dropTarget=0;pointerEvents=0;fillColor=none;points=[[0,0.5],[1,0.5]];portConstraint=eastwest;top=0;left=0;right=0;bottom=1;" parent="cVbe3402FyO1d1cokief-50" vertex="1">
          <mxGeometry y="30" width="328" height="30" as="geometry" />
        </mxCell>
        <mxCell id="cVbe3402FyO1d1cokief-52" value="PK" style="shape=partialRectangle;overflow=hidden;connectable=0;fillColor=none;top=0;left=0;bottom=0;right=0;fontStyle=1;" parent="cVbe3402FyO1d1cokief-51" vertex="1">
          <mxGeometry width="30" height="30" as="geometry">
            <mxRectangle width="30" height="30" as="alternateBounds" />
          </mxGeometry>
        </mxCell>
        <mxCell id="cVbe3402FyO1d1cokief-53" value="employeeId int NOT NULL " style="shape=partialRectangle;overflow=hidden;connectable=0;fillColor=none;top=0;left=0;bottom=0;right=0;align=left;spacingLeft=6;fontStyle=5;" parent="cVbe3402FyO1d1cokief-51" vertex="1">
          <mxGeometry x="30" width="298" height="30" as="geometry">
            <mxRectangle width="298" height="30" as="alternateBounds" />
          </mxGeometry>
        </mxCell>
        <mxCell id="cVbe3402FyO1d1cokief-54" value="" style="shape=partialRectangle;collapsible=0;dropTarget=0;pointerEvents=0;fillColor=none;points=[[0,0.5],[1,0.5]];portConstraint=eastwest;top=0;left=0;right=0;bottom=0;" parent="cVbe3402FyO1d1cokief-50" vertex="1">
          <mxGeometry y="60" width="328" height="30" as="geometry" />
        </mxCell>
        <mxCell id="cVbe3402FyO1d1cokief-55" value="" style="shape=partialRectangle;overflow=hidden;connectable=0;fillColor=none;top=0;left=0;bottom=0;right=0;" parent="cVbe3402FyO1d1cokief-54" vertex="1">
          <mxGeometry width="30" height="30" as="geometry">
            <mxRectangle width="30" height="30" as="alternateBounds" />
          </mxGeometry>
        </mxCell>
        <mxCell id="cVbe3402FyO1d1cokief-56" value="role VARCHARÂ (CHECK role IN (&#39;Cashier&#39;, &#39;Manager&#39;,&#xa;&#39;Stock Keeper&#39;))" style="shape=partialRectangle;overflow=hidden;connectable=0;fillColor=none;top=0;left=0;bottom=0;right=0;align=left;spacingLeft=6;" parent="cVbe3402FyO1d1cokief-54" vertex="1">
          <mxGeometry x="30" width="298" height="30" as="geometry">
            <mxRectangle width="298" height="30" as="alternateBounds" />
          </mxGeometry>
        </mxCell>
        <mxCell id="cVbe3402FyO1d1cokief-57" value="" style="shape=partialRectangle;collapsible=0;dropTarget=0;pointerEvents=0;fillColor=none;points=[[0,0.5],[1,0.5]];portConstraint=eastwest;top=0;left=0;right=0;bottom=0;" parent="cVbe3402FyO1d1cokief-50" vertex="1">
          <mxGeometry y="90" width="328" height="30" as="geometry" />
        </mxCell>
        <mxCell id="cVbe3402FyO1d1cokief-58" value="" style="shape=partialRectangle;overflow=hidden;connectable=0;fillColor=none;top=0;left=0;bottom=0;right=0;" parent="cVbe3402FyO1d1cokief-57" vertex="1">
          <mxGeometry width="30" height="30" as="geometry">
            <mxRectangle width="30" height="30" as="alternateBounds" />
          </mxGeometry>
        </mxCell>
        <mxCell id="cVbe3402FyO1d1cokief-59" value="name VARCHAR (NOT NULL)" style="shape=partialRectangle;overflow=hidden;connectable=0;fillColor=none;top=0;left=0;bottom=0;right=0;align=left;spacingLeft=6;" parent="cVbe3402FyO1d1cokief-57" vertex="1">
          <mxGeometry x="30" width="298" height="30" as="geometry">
            <mxRectangle width="298" height="30" as="alternateBounds" />
          </mxGeometry>
        </mxCell>
        <mxCell id="cVbe3402FyO1d1cokief-60" value="" style="shape=partialRectangle;collapsible=0;dropTarget=0;pointerEvents=0;fillColor=none;points=[[0,0.5],[1,0.5]];portConstraint=eastwest;top=0;left=0;right=0;bottom=0;" parent="cVbe3402FyO1d1cokief-50" vertex="1">
          <mxGeometry y="120" width="328" height="30" as="geometry" />
        </mxCell>
        <mxCell id="cVbe3402FyO1d1cokief-61" value="" style="shape=partialRectangle;overflow=hidden;connectable=0;fillColor=none;top=0;left=0;bottom=0;right=0;" parent="cVbe3402FyO1d1cokief-60" vertex="1">
          <mxGeometry width="30" height="30" as="geometry">
            <mxRectangle width="30" height="30" as="alternateBounds" />
          </mxGeometry>
        </mxCell>
        <mxCell id="cVbe3402FyO1d1cokief-62" value="email VARCHAR (NOT NULL, UNIQUE)" style="shape=partialRectangle;overflow=hidden;connectable=0;fillColor=none;top=0;left=0;bottom=0;right=0;align=left;spacingLeft=6;" parent="cVbe3402FyO1d1cokief-60" vertex="1">
          <mxGeometry x="30" width="298" height="30" as="geometry">
            <mxRectangle width="298" height="30" as="alternateBounds" />
          </mxGeometry>
        </mxCell>
        <mxCell id="cVbe3402FyO1d1cokief-63" value="" style="shape=partialRectangle;collapsible=0;dropTarget=0;pointerEvents=0;fillColor=none;points=[[0,0.5],[1,0.5]];portConstraint=eastwest;top=0;left=0;right=0;bottom=0;" parent="cVbe3402FyO1d1cokief-50" vertex="1">
          <mxGeometry y="150" width="328" height="30" as="geometry" />
        </mxCell>
        <mxCell id="cVbe3402FyO1d1cokief-64" value="" style="shape=partialRectangle;overflow=hidden;connectable=0;fillColor=none;top=0;left=0;bottom=0;right=0;" parent="cVbe3402FyO1d1cokief-63" vertex="1">
          <mxGeometry width="30" height="30" as="geometry">
            <mxRectangle width="30" height="30" as="alternateBounds" />
          </mxGeometry>
        </mxCell>
        <mxCell id="cVbe3402FyO1d1cokief-65" value="phone VARCHAR (NOT NULL, UNIQUE)" style="shape=partialRectangle;overflow=hidden;connectable=0;fillColor=none;top=0;left=0;bottom=0;right=0;align=left;spacingLeft=6;" parent="cVbe3402FyO1d1cokief-63" vertex="1">
          <mxGeometry x="30" width="298" height="30" as="geometry">
            <mxRectangle width="298" height="30" as="alternateBounds" />
          </mxGeometry>
        </mxCell>
        <mxCell id="cVbe3402FyO1d1cokief-66" value="" style="shape=partialRectangle;collapsible=0;dropTarget=0;pointerEvents=0;fillColor=none;points=[[0,0.5],[1,0.5]];portConstraint=eastwest;top=0;left=0;right=0;bottom=0;" parent="cVbe3402FyO1d1cokief-50" vertex="1">
          <mxGeometry y="180" width="328" height="30" as="geometry" />
        </mxCell>
        <mxCell id="cVbe3402FyO1d1cokief-67" value="" style="shape=partialRectangle;overflow=hidden;connectable=0;fillColor=none;top=0;left=0;bottom=0;right=0;" parent="cVbe3402FyO1d1cokief-66" vertex="1">
          <mxGeometry width="30" height="30" as="geometry">
            <mxRectangle width="30" height="30" as="alternateBounds" />
          </mxGeometry>
        </mxCell>
        <mxCell id="cVbe3402FyO1d1cokief-68" value="salary decimal (CHECK salary &gt;= 0 )" style="shape=partialRectangle;overflow=hidden;connectable=0;fillColor=none;top=0;left=0;bottom=0;right=0;align=left;spacingLeft=6;" parent="cVbe3402FyO1d1cokief-66" vertex="1">
          <mxGeometry x="30" width="298" height="30" as="geometry">
            <mxRectangle width="298" height="30" as="alternateBounds" />
          </mxGeometry>
        </mxCell>
        <mxCell id="cVbe3402FyO1d1cokief-69" value="Transactions" style="shape=table;startSize=30;container=1;collapsible=1;childLayout=tableLayout;fixedRows=1;rowLines=0;fontStyle=1;align=center;resizeLast=1;" parent="1" vertex="1">
          <mxGeometry x="30" y="305" width="328" height="220" as="geometry" />
        </mxCell>
        <mxCell id="cVbe3402FyO1d1cokief-70" value="" style="shape=partialRectangle;collapsible=0;dropTarget=0;pointerEvents=0;fillColor=none;points=[[0,0.5],[1,0.5]];portConstraint=eastwest;top=0;left=0;right=0;bottom=1;" parent="cVbe3402FyO1d1cokief-69" vertex="1">
          <mxGeometry y="30" width="328" height="30" as="geometry" />
        </mxCell>
        <mxCell id="cVbe3402FyO1d1cokief-71" value="PK" style="shape=partialRectangle;overflow=hidden;connectable=0;fillColor=none;top=0;left=0;bottom=0;right=0;fontStyle=1;" parent="cVbe3402FyO1d1cokief-70" vertex="1">
          <mxGeometry width="30" height="30" as="geometry">
            <mxRectangle width="30" height="30" as="alternateBounds" />
          </mxGeometry>
        </mxCell>
        <mxCell id="cVbe3402FyO1d1cokief-72" value="transactionId int NOT NULL " style="shape=partialRectangle;overflow=hidden;connectable=0;fillColor=none;top=0;left=0;bottom=0;right=0;align=left;spacingLeft=6;fontStyle=5;" parent="cVbe3402FyO1d1cokief-70" vertex="1">
          <mxGeometry x="30" width="298" height="30" as="geometry">
            <mxRectangle width="298" height="30" as="alternateBounds" />
          </mxGeometry>
        </mxCell>
        <mxCell id="cVbe3402FyO1d1cokief-76" value="" style="shape=partialRectangle;collapsible=0;dropTarget=0;pointerEvents=0;fillColor=none;points=[[0,0.5],[1,0.5]];portConstraint=eastwest;top=0;left=0;right=0;bottom=0;" parent="cVbe3402FyO1d1cokief-69" vertex="1">
          <mxGeometry y="60" width="328" height="30" as="geometry" />
        </mxCell>
        <mxCell id="cVbe3402FyO1d1cokief-77" value="" style="shape=partialRectangle;overflow=hidden;connectable=0;fillColor=none;top=0;left=0;bottom=0;right=0;" parent="cVbe3402FyO1d1cokief-76" vertex="1">
          <mxGeometry width="30" height="30" as="geometry">
            <mxRectangle width="30" height="30" as="alternateBounds" />
          </mxGeometry>
        </mxCell>
        <mxCell id="cVbe3402FyO1d1cokief-78" value="customerId intÂ " style="shape=partialRectangle;overflow=hidden;connectable=0;fillColor=none;top=0;left=0;bottom=0;right=0;align=left;spacingLeft=6;" parent="cVbe3402FyO1d1cokief-76" vertex="1">
          <mxGeometry x="30" width="298" height="30" as="geometry">
            <mxRectangle width="298" height="30" as="alternateBounds" />
          </mxGeometry>
        </mxCell>
        <mxCell id="cVbe3402FyO1d1cokief-79" value="" style="shape=partialRectangle;collapsible=0;dropTarget=0;pointerEvents=0;fillColor=none;points=[[0,0.5],[1,0.5]];portConstraint=eastwest;top=0;left=0;right=0;bottom=0;" parent="cVbe3402FyO1d1cokief-69" vertex="1">
          <mxGeometry y="90" width="328" height="30" as="geometry" />
        </mxCell>
        <mxCell id="cVbe3402FyO1d1cokief-80" value="" style="shape=partialRectangle;overflow=hidden;connectable=0;fillColor=none;top=0;left=0;bottom=0;right=0;" parent="cVbe3402FyO1d1cokief-79" vertex="1">
          <mxGeometry width="30" height="30" as="geometry">
            <mxRectangle width="30" height="30" as="alternateBounds" />
          </mxGeometry>
        </mxCell>
        <mxCell id="cVbe3402FyO1d1cokief-81" value="employeeId intÂ " style="shape=partialRectangle;overflow=hidden;connectable=0;fillColor=none;top=0;left=0;bottom=0;right=0;align=left;spacingLeft=6;" parent="cVbe3402FyO1d1cokief-79" vertex="1">
          <mxGeometry x="30" width="298" height="30" as="geometry">
            <mxRectangle width="298" height="30" as="alternateBounds" />
          </mxGeometry>
        </mxCell>
        <mxCell id="cVbe3402FyO1d1cokief-82" value="" style="shape=partialRectangle;collapsible=0;dropTarget=0;pointerEvents=0;fillColor=none;points=[[0,0.5],[1,0.5]];portConstraint=eastwest;top=0;left=0;right=0;bottom=0;" parent="cVbe3402FyO1d1cokief-69" vertex="1">
          <mxGeometry y="120" width="328" height="30" as="geometry" />
        </mxCell>
        <mxCell id="cVbe3402FyO1d1cokief-83" value="" style="shape=partialRectangle;overflow=hidden;connectable=0;fillColor=none;top=0;left=0;bottom=0;right=0;" parent="cVbe3402FyO1d1cokief-82" vertex="1">
          <mxGeometry width="30" height="30" as="geometry">
            <mxRectangle width="30" height="30" as="alternateBounds" />
          </mxGeometry>
        </mxCell>
        <mxCell id="cVbe3402FyO1d1cokief-84" value="transactiontype: VARCHAR (CHECK transaction&#xa;TypeÂ Â IN (&#39;Buy&#39;, &#39;Borrow&#39;))" style="shape=partialRectangle;overflow=hidden;connectable=0;fillColor=none;top=0;left=0;bottom=0;right=0;align=left;spacingLeft=6;" parent="cVbe3402FyO1d1cokief-82" vertex="1">
          <mxGeometry x="30" width="298" height="30" as="geometry">
            <mxRectangle width="298" height="30" as="alternateBounds" />
          </mxGeometry>
        </mxCell>
        <mxCell id="cVbe3402FyO1d1cokief-85" value="" style="shape=partialRectangle;collapsible=0;dropTarget=0;pointerEvents=0;fillColor=none;points=[[0,0.5],[1,0.5]];portConstraint=eastwest;top=0;left=0;right=0;bottom=0;" parent="cVbe3402FyO1d1cokief-69" vertex="1">
          <mxGeometry y="150" width="328" height="30" as="geometry" />
        </mxCell>
        <mxCell id="cVbe3402FyO1d1cokief-86" value="" style="shape=partialRectangle;overflow=hidden;connectable=0;fillColor=none;top=0;left=0;bottom=0;right=0;" parent="cVbe3402FyO1d1cokief-85" vertex="1">
          <mxGeometry width="30" height="30" as="geometry">
            <mxRectangle width="30" height="30" as="alternateBounds" />
          </mxGeometry>
        </mxCell>
        <mxCell id="cVbe3402FyO1d1cokief-87" value="transactionDate datetime" style="shape=partialRectangle;overflow=hidden;connectable=0;fillColor=none;top=0;left=0;bottom=0;right=0;align=left;spacingLeft=6;" parent="cVbe3402FyO1d1cokief-85" vertex="1">
          <mxGeometry x="30" width="298" height="30" as="geometry">
            <mxRectangle width="298" height="30" as="alternateBounds" />
          </mxGeometry>
        </mxCell>
        <mxCell id="cVbe3402FyO1d1cokief-91" value="" style="shape=partialRectangle;collapsible=0;dropTarget=0;pointerEvents=0;fillColor=none;points=[[0,0.5],[1,0.5]];portConstraint=eastwest;top=0;left=0;right=0;bottom=0;" parent="cVbe3402FyO1d1cokief-69" vertex="1">
          <mxGeometry y="180" width="328" height="30" as="geometry" />
        </mxCell>
        <mxCell id="cVbe3402FyO1d1cokief-92" value="" style="shape=partialRectangle;overflow=hidden;connectable=0;fillColor=none;top=0;left=0;bottom=0;right=0;" parent="cVbe3402FyO1d1cokief-91" vertex="1">
          <mxGeometry width="30" height="30" as="geometry">
            <mxRectangle width="30" height="30" as="alternateBounds" />
          </mxGeometry>
        </mxCell>
        <mxCell id="cVbe3402FyO1d1cokief-93" value="amount decimal (CHECK amount &gt;= 0)" style="shape=partialRectangle;overflow=hidden;connectable=0;fillColor=none;top=0;left=0;bottom=0;right=0;align=left;spacingLeft=6;" parent="cVbe3402FyO1d1cokief-91" vertex="1">
          <mxGeometry x="30" width="298" height="30" as="geometry">
            <mxRectangle width="298" height="30" as="alternateBounds" />
          </mxGeometry>
        </mxCell>
        <mxCell id="cVbe3402FyO1d1cokief-89" value="FK" style="shape=partialRectangle;overflow=hidden;connectable=0;fillColor=none;top=0;left=0;bottom=1;right=0;" parent="1" vertex="1">
          <mxGeometry x="30" y="370" width="30" height="30" as="geometry">
            <mxRectangle width="30" height="30" as="alternateBounds" />
          </mxGeometry>
        </mxCell>
        <mxCell id="cVbe3402FyO1d1cokief-90" value="FK" style="shape=partialRectangle;overflow=hidden;connectable=0;fillColor=none;top=0;left=0;bottom=1;right=0;" parent="1" vertex="1">
          <mxGeometry x="30" y="400" width="30" height="30" as="geometry">
            <mxRectangle width="30" height="30" as="alternateBounds" />
          </mxGeometry>
        </mxCell>
        <mxCell id="cVbe3402FyO1d1cokief-99" value="BorrowingRecords" style="shape=table;startSize=30;container=1;collapsible=1;childLayout=tableLayout;fixedRows=1;rowLines=0;fontStyle=1;align=center;resizeLast=1;" parent="1" vertex="1">
          <mxGeometry x="30" y="550" width="332" height="190" as="geometry" />
        </mxCell>
        <mxCell id="cVbe3402FyO1d1cokief-100" value="" style="shape=partialRectangle;collapsible=0;dropTarget=0;pointerEvents=0;fillColor=none;points=[[0,0.5],[1,0.5]];portConstraint=eastwest;top=0;left=0;right=0;bottom=1;" parent="cVbe3402FyO1d1cokief-99" vertex="1">
          <mxGeometry y="30" width="332" height="30" as="geometry" />
        </mxCell>
        <mxCell id="cVbe3402FyO1d1cokief-101" value="PK" style="shape=partialRectangle;overflow=hidden;connectable=0;fillColor=none;top=0;left=0;bottom=0;right=0;fontStyle=1;" parent="cVbe3402FyO1d1cokief-100" vertex="1">
          <mxGeometry width="30" height="30" as="geometry">
            <mxRectangle width="30" height="30" as="alternateBounds" />
          </mxGeometry>
        </mxCell>
        <mxCell id="cVbe3402FyO1d1cokief-102" value="recordId int NOT NULL " style="shape=partialRectangle;overflow=hidden;connectable=0;fillColor=none;top=0;left=0;bottom=0;right=0;align=left;spacingLeft=6;fontStyle=5;" parent="cVbe3402FyO1d1cokief-100" vertex="1">
          <mxGeometry x="30" width="302" height="30" as="geometry">
            <mxRectangle width="302" height="30" as="alternateBounds" />
          </mxGeometry>
        </mxCell>
        <mxCell id="cVbe3402FyO1d1cokief-103" value="" style="shape=partialRectangle;collapsible=0;dropTarget=0;pointerEvents=0;fillColor=none;points=[[0,0.5],[1,0.5]];portConstraint=eastwest;top=0;left=0;right=0;bottom=0;" parent="cVbe3402FyO1d1cokief-99" vertex="1">
          <mxGeometry y="60" width="332" height="30" as="geometry" />
        </mxCell>
        <mxCell id="cVbe3402FyO1d1cokief-104" value="FK" style="shape=partialRectangle;overflow=hidden;connectable=0;fillColor=none;top=0;left=0;bottom=1;right=0;" parent="cVbe3402FyO1d1cokief-103" vertex="1">
          <mxGeometry width="30" height="30" as="geometry">
            <mxRectangle width="30" height="30" as="alternateBounds" />
          </mxGeometry>
        </mxCell>
        <mxCell id="cVbe3402FyO1d1cokief-105" value="transactionsId intÂ " style="shape=partialRectangle;overflow=hidden;connectable=0;fillColor=none;top=0;left=0;bottom=0;right=0;align=left;spacingLeft=6;" parent="cVbe3402FyO1d1cokief-103" vertex="1">
          <mxGeometry x="30" width="302" height="30" as="geometry">
            <mxRectangle width="302" height="30" as="alternateBounds" />
          </mxGeometry>
        </mxCell>
        <mxCell id="cVbe3402FyO1d1cokief-106" value="" style="shape=partialRectangle;collapsible=0;dropTarget=0;pointerEvents=0;fillColor=none;points=[[0,0.5],[1,0.5]];portConstraint=eastwest;top=0;left=0;right=0;bottom=0;" parent="cVbe3402FyO1d1cokief-99" vertex="1">
          <mxGeometry y="90" width="332" height="30" as="geometry" />
        </mxCell>
        <mxCell id="cVbe3402FyO1d1cokief-107" value="" style="shape=partialRectangle;overflow=hidden;connectable=0;fillColor=none;top=0;left=0;bottom=0;right=0;" parent="cVbe3402FyO1d1cokief-106" vertex="1">
          <mxGeometry width="30" height="30" as="geometry">
            <mxRectangle width="30" height="30" as="alternateBounds" />
          </mxGeometry>
        </mxCell>
        <mxCell id="cVbe3402FyO1d1cokief-108" value="duedate Date NOT NULL" style="shape=partialRectangle;overflow=hidden;connectable=0;fillColor=none;top=0;left=0;bottom=0;right=0;align=left;spacingLeft=6;" parent="cVbe3402FyO1d1cokief-106" vertex="1">
          <mxGeometry x="30" width="302" height="30" as="geometry">
            <mxRectangle width="302" height="30" as="alternateBounds" />
          </mxGeometry>
        </mxCell>
        <mxCell id="cVbe3402FyO1d1cokief-109" value="" style="shape=partialRectangle;collapsible=0;dropTarget=0;pointerEvents=0;fillColor=none;points=[[0,0.5],[1,0.5]];portConstraint=eastwest;top=0;left=0;right=0;bottom=0;" parent="cVbe3402FyO1d1cokief-99" vertex="1">
          <mxGeometry y="120" width="332" height="30" as="geometry" />
        </mxCell>
        <mxCell id="cVbe3402FyO1d1cokief-110" value="" style="shape=partialRectangle;overflow=hidden;connectable=0;fillColor=none;top=0;left=0;bottom=0;right=0;" parent="cVbe3402FyO1d1cokief-109" vertex="1">
          <mxGeometry width="30" height="30" as="geometry">
            <mxRectangle width="30" height="30" as="alternateBounds" />
          </mxGeometry>
        </mxCell>
        <mxCell id="cVbe3402FyO1d1cokief-111" value="returenedDate Date NOT NULL" style="shape=partialRectangle;overflow=hidden;connectable=0;fillColor=none;top=0;left=0;bottom=0;right=0;align=left;spacingLeft=6;" parent="cVbe3402FyO1d1cokief-109" vertex="1">
          <mxGeometry x="30" width="302" height="30" as="geometry">
            <mxRectangle width="302" height="30" as="alternateBounds" />
          </mxGeometry>
        </mxCell>
        <mxCell id="cVbe3402FyO1d1cokief-112" value="" style="shape=partialRectangle;collapsible=0;dropTarget=0;pointerEvents=0;fillColor=none;points=[[0,0.5],[1,0.5]];portConstraint=eastwest;top=0;left=0;right=0;bottom=0;" parent="cVbe3402FyO1d1cokief-99" vertex="1">
          <mxGeometry y="150" width="332" height="30" as="geometry" />
        </mxCell>
        <mxCell id="cVbe3402FyO1d1cokief-113" value="" style="shape=partialRectangle;overflow=hidden;connectable=0;fillColor=none;top=0;left=0;bottom=0;right=0;" parent="cVbe3402FyO1d1cokief-112" vertex="1">
          <mxGeometry width="30" height="30" as="geometry">
            <mxRectangle width="30" height="30" as="alternateBounds" />
          </mxGeometry>
        </mxCell>
        <mxCell id="cVbe3402FyO1d1cokief-114" value="fine decimal (check fine &gt;= 0) default 0" style="shape=partialRectangle;overflow=hidden;connectable=0;fillColor=none;top=0;left=0;bottom=0;right=0;align=left;spacingLeft=6;" parent="cVbe3402FyO1d1cokief-112" vertex="1">
          <mxGeometry x="30" width="302" height="30" as="geometry">
            <mxRectangle width="302" height="30" as="alternateBounds" />
          </mxGeometry>
        </mxCell>
        <mxCell id="cVbe3402FyO1d1cokief-121" value="Payments" style="shape=table;startSize=30;container=1;collapsible=1;childLayout=tableLayout;fixedRows=1;rowLines=0;fontStyle=1;align=center;resizeLast=1;" parent="1" vertex="1">
          <mxGeometry x="460" y="470" width="328" height="230" as="geometry" />
        </mxCell>
        <mxCell id="cVbe3402FyO1d1cokief-122" value="" style="shape=partialRectangle;collapsible=0;dropTarget=0;pointerEvents=0;fillColor=none;points=[[0,0.5],[1,0.5]];portConstraint=eastwest;top=0;left=0;right=0;bottom=1;" parent="cVbe3402FyO1d1cokief-121" vertex="1">
          <mxGeometry y="30" width="328" height="30" as="geometry" />
        </mxCell>
        <mxCell id="cVbe3402FyO1d1cokief-123" value="PK" style="shape=partialRectangle;overflow=hidden;connectable=0;fillColor=none;top=0;left=0;bottom=0;right=0;fontStyle=1;" parent="cVbe3402FyO1d1cokief-122" vertex="1">
          <mxGeometry width="30" height="30" as="geometry">
            <mxRectangle width="30" height="30" as="alternateBounds" />
          </mxGeometry>
        </mxCell>
        <mxCell id="cVbe3402FyO1d1cokief-124" value="paymentId int NOT NULL " style="shape=partialRectangle;overflow=hidden;connectable=0;fillColor=none;top=0;left=0;bottom=0;right=0;align=left;spacingLeft=6;fontStyle=5;" parent="cVbe3402FyO1d1cokief-122" vertex="1">
          <mxGeometry x="30" width="298" height="30" as="geometry">
            <mxRectangle width="298" height="30" as="alternateBounds" />
          </mxGeometry>
        </mxCell>
        <mxCell id="cVbe3402FyO1d1cokief-125" value="" style="shape=partialRectangle;collapsible=0;dropTarget=0;pointerEvents=0;fillColor=none;points=[[0,0.5],[1,0.5]];portConstraint=eastwest;top=0;left=0;right=0;bottom=0;" parent="cVbe3402FyO1d1cokief-121" vertex="1">
          <mxGeometry y="60" width="328" height="30" as="geometry" />
        </mxCell>
        <mxCell id="cVbe3402FyO1d1cokief-126" value="FK" style="shape=partialRectangle;overflow=hidden;connectable=0;fillColor=none;top=0;left=0;bottom=1;right=0;" parent="cVbe3402FyO1d1cokief-125" vertex="1">
          <mxGeometry width="30" height="30" as="geometry">
            <mxRectangle width="30" height="30" as="alternateBounds" />
          </mxGeometry>
        </mxCell>
        <mxCell id="cVbe3402FyO1d1cokief-127" value="transactionId" style="shape=partialRectangle;overflow=hidden;connectable=0;fillColor=none;top=0;left=0;bottom=0;right=0;align=left;spacingLeft=6;" parent="cVbe3402FyO1d1cokief-125" vertex="1">
          <mxGeometry x="30" width="298" height="30" as="geometry">
            <mxRectangle width="298" height="30" as="alternateBounds" />
          </mxGeometry>
        </mxCell>
        <mxCell id="cVbe3402FyO1d1cokief-128" value="" style="shape=partialRectangle;collapsible=0;dropTarget=0;pointerEvents=0;fillColor=none;points=[[0,0.5],[1,0.5]];portConstraint=eastwest;top=0;left=0;right=0;bottom=0;" parent="cVbe3402FyO1d1cokief-121" vertex="1">
          <mxGeometry y="90" width="328" height="30" as="geometry" />
        </mxCell>
        <mxCell id="cVbe3402FyO1d1cokief-129" value="" style="shape=partialRectangle;overflow=hidden;connectable=0;fillColor=none;top=0;left=0;bottom=0;right=0;" parent="cVbe3402FyO1d1cokief-128" vertex="1">
          <mxGeometry width="30" height="30" as="geometry">
            <mxRectangle width="30" height="30" as="alternateBounds" />
          </mxGeometry>
        </mxCell>
        <mxCell id="cVbe3402FyO1d1cokief-130" value="customerId intÂ " style="shape=partialRectangle;overflow=hidden;connectable=0;fillColor=none;top=0;left=0;bottom=0;right=0;align=left;spacingLeft=6;" parent="cVbe3402FyO1d1cokief-128" vertex="1">
          <mxGeometry x="30" width="298" height="30" as="geometry">
            <mxRectangle width="298" height="30" as="alternateBounds" />
          </mxGeometry>
        </mxCell>
        <mxCell id="cVbe3402FyO1d1cokief-131" value="" style="shape=partialRectangle;collapsible=0;dropTarget=0;pointerEvents=0;fillColor=none;points=[[0,0.5],[1,0.5]];portConstraint=eastwest;top=0;left=0;right=0;bottom=0;" parent="cVbe3402FyO1d1cokief-121" vertex="1">
          <mxGeometry y="120" width="328" height="30" as="geometry" />
        </mxCell>
        <mxCell id="cVbe3402FyO1d1cokief-132" value="" style="shape=partialRectangle;overflow=hidden;connectable=0;fillColor=none;top=0;left=0;bottom=0;right=0;" parent="cVbe3402FyO1d1cokief-131" vertex="1">
          <mxGeometry width="30" height="30" as="geometry">
            <mxRectangle width="30" height="30" as="alternateBounds" />
          </mxGeometry>
        </mxCell>
        <mxCell id="cVbe3402FyO1d1cokief-133" value="amountPaid DECIMAL (10,2) (CHECKÂ &#xa;amountPaid &gt;= 0)" style="shape=partialRectangle;overflow=hidden;connectable=0;fillColor=none;top=0;left=0;bottom=0;right=0;align=left;spacingLeft=6;" parent="cVbe3402FyO1d1cokief-131" vertex="1">
          <mxGeometry x="30" width="298" height="30" as="geometry">
            <mxRectangle width="298" height="30" as="alternateBounds" />
          </mxGeometry>
        </mxCell>
        <mxCell id="cVbe3402FyO1d1cokief-134" value="" style="shape=partialRectangle;collapsible=0;dropTarget=0;pointerEvents=0;fillColor=none;points=[[0,0.5],[1,0.5]];portConstraint=eastwest;top=0;left=0;right=0;bottom=0;" parent="cVbe3402FyO1d1cokief-121" vertex="1">
          <mxGeometry y="150" width="328" height="40" as="geometry" />
        </mxCell>
        <mxCell id="cVbe3402FyO1d1cokief-135" value="" style="shape=partialRectangle;overflow=hidden;connectable=0;fillColor=none;top=0;left=0;bottom=0;right=0;" parent="cVbe3402FyO1d1cokief-134" vertex="1">
          <mxGeometry width="30" height="40" as="geometry">
            <mxRectangle width="30" height="40" as="alternateBounds" />
          </mxGeometry>
        </mxCell>
        <mxCell id="cVbe3402FyO1d1cokief-136" value="paymentDate Datetime" style="shape=partialRectangle;overflow=hidden;connectable=0;fillColor=none;top=0;left=0;bottom=0;right=0;align=left;spacingLeft=6;" parent="cVbe3402FyO1d1cokief-134" vertex="1">
          <mxGeometry x="30" width="298" height="40" as="geometry">
            <mxRectangle width="298" height="40" as="alternateBounds" />
          </mxGeometry>
        </mxCell>
        <mxCell id="cVbe3402FyO1d1cokief-137" value="" style="shape=partialRectangle;collapsible=0;dropTarget=0;pointerEvents=0;fillColor=none;points=[[0,0.5],[1,0.5]];portConstraint=eastwest;top=0;left=0;right=0;bottom=0;" parent="cVbe3402FyO1d1cokief-121" vertex="1">
          <mxGeometry y="190" width="328" height="30" as="geometry" />
        </mxCell>
        <mxCell id="cVbe3402FyO1d1cokief-138" value="" style="shape=partialRectangle;overflow=hidden;connectable=0;fillColor=none;top=0;left=0;bottom=0;right=0;" parent="cVbe3402FyO1d1cokief-137" vertex="1">
          <mxGeometry width="30" height="30" as="geometry">
            <mxRectangle width="30" height="30" as="alternateBounds" />
          </mxGeometry>
        </mxCell>
        <mxCell id="cVbe3402FyO1d1cokief-139" value="paymentMethodÂ VARCHAR (CHECK paymentMethod&#xa;IN (&#39;Cash&#39;, &#39;Credit Card&#39;, &#39;Jazz Cash&#39;))" style="shape=partialRectangle;overflow=hidden;connectable=0;fillColor=none;top=0;left=0;bottom=0;right=0;align=left;spacingLeft=6;" parent="cVbe3402FyO1d1cokief-137" vertex="1">
          <mxGeometry x="30" width="298" height="30" as="geometry">
            <mxRectangle width="298" height="30" as="alternateBounds" />
          </mxGeometry>
        </mxCell>
        <mxCell id="cVbe3402FyO1d1cokief-166" value="FK" style="shape=partialRectangle;overflow=hidden;connectable=0;fillColor=none;top=0;left=0;bottom=1;right=0;" parent="1" vertex="1">
          <mxGeometry x="460" y="555" width="30" height="30" as="geometry">
            <mxRectangle width="30" height="30" as="alternateBounds" />
          </mxGeometry>
        </mxCell>
        <mxCell id="NPs0PZWvJLxieHYWrK92-23" value="FK" style="shape=partialRectangle;overflow=hidden;connectable=0;fillColor=none;top=1;left=0;bottom=1;right=0;" parent="1" vertex="1">
          <mxGeometry x="20" y="120" width="30" height="30" as="geometry">
            <mxRectangle width="30" height="30" as="alternateBounds" />
          </mxGeometry>
        </mxCell>
        <mxCell id="NPs0PZWvJLxieHYWrK92-24" value="FK" style="shape=partialRectangle;overflow=hidden;connectable=0;fillColor=none;top=1;left=0;bottom=1;right=0;" parent="1" vertex="1">
          <mxGeometry x="20" y="150" width="30" height="30" as="geometry">
            <mxRectangle width="30" height="30" as="alternateBounds" />
          </mxGeometry>
        </mxCell>
        <mxCell id="NPs0PZWvJLxieHYWrK92-28" value="FK" style="shape=partialRectangle;overflow=hidden;connectable=0;fillColor=none;top=1;left=0;bottom=1;right=0;" parent="1" vertex="1">
          <mxGeometry x="460" y="110" width="30" height="30" as="geometry">
            <mxRectangle width="30" height="30" as="alternateBounds" />
          </mxGeometry>
        </mxCell>
        <mxCell id="NPs0PZWvJLxieHYWrK92-29" value="person" style="shape=table;startSize=30;container=1;collapsible=1;childLayout=tableLayout;fixedRows=1;rowLines=0;fontStyle=1;align=center;resizeLast=1;" parent="1" vertex="1">
          <mxGeometry x="40" y="780" width="360" height="190" as="geometry" />
        </mxCell>
        <mxCell id="NPs0PZWvJLxieHYWrK92-30" value="" style="shape=partialRectangle;collapsible=0;dropTarget=0;pointerEvents=0;fillColor=none;points=[[0,0.5],[1,0.5]];portConstraint=eastwest;top=0;left=0;right=0;bottom=1;" parent="NPs0PZWvJLxieHYWrK92-29" vertex="1">
          <mxGeometry y="30" width="360" height="30" as="geometry" />
        </mxCell>
        <mxCell id="NPs0PZWvJLxieHYWrK92-31" value="PK" style="shape=partialRectangle;overflow=hidden;connectable=0;fillColor=none;top=0;left=0;bottom=0;right=0;fontStyle=1;" parent="NPs0PZWvJLxieHYWrK92-30" vertex="1">
          <mxGeometry width="30" height="30" as="geometry">
            <mxRectangle width="30" height="30" as="alternateBounds" />
          </mxGeometry>
        </mxCell>
        <mxCell id="NPs0PZWvJLxieHYWrK92-32" value="personID int NOT NULL " style="shape=partialRectangle;overflow=hidden;connectable=0;fillColor=none;top=0;left=0;bottom=0;right=0;align=left;spacingLeft=6;fontStyle=5;" parent="NPs0PZWvJLxieHYWrK92-30" vertex="1">
          <mxGeometry x="30" width="330" height="30" as="geometry">
            <mxRectangle width="330" height="30" as="alternateBounds" />
          </mxGeometry>
        </mxCell>
        <mxCell id="NPs0PZWvJLxieHYWrK92-36" value="" style="shape=partialRectangle;collapsible=0;dropTarget=0;pointerEvents=0;fillColor=none;points=[[0,0.5],[1,0.5]];portConstraint=eastwest;top=0;left=0;right=0;bottom=0;" parent="NPs0PZWvJLxieHYWrK92-29" vertex="1">
          <mxGeometry y="60" width="360" height="30" as="geometry" />
        </mxCell>
        <mxCell id="NPs0PZWvJLxieHYWrK92-37" value="" style="shape=partialRectangle;overflow=hidden;connectable=0;fillColor=none;top=0;left=0;bottom=0;right=0;" parent="NPs0PZWvJLxieHYWrK92-36" vertex="1">
          <mxGeometry width="30" height="30" as="geometry">
            <mxRectangle width="30" height="30" as="alternateBounds" />
          </mxGeometry>
        </mxCell>
        <mxCell id="NPs0PZWvJLxieHYWrK92-38" value="name varchar NOT NULL" style="shape=partialRectangle;overflow=hidden;connectable=0;fillColor=none;top=0;left=0;bottom=0;right=0;align=left;spacingLeft=6;" parent="NPs0PZWvJLxieHYWrK92-36" vertex="1">
          <mxGeometry x="30" width="330" height="30" as="geometry">
            <mxRectangle width="330" height="30" as="alternateBounds" />
          </mxGeometry>
        </mxCell>
        <mxCell id="NPs0PZWvJLxieHYWrK92-39" value="" style="shape=partialRectangle;collapsible=0;dropTarget=0;pointerEvents=0;fillColor=none;points=[[0,0.5],[1,0.5]];portConstraint=eastwest;top=0;left=0;right=0;bottom=0;" parent="NPs0PZWvJLxieHYWrK92-29" vertex="1">
          <mxGeometry y="90" width="360" height="30" as="geometry" />
        </mxCell>
        <mxCell id="NPs0PZWvJLxieHYWrK92-40" value="" style="shape=partialRectangle;overflow=hidden;connectable=0;fillColor=none;top=0;left=0;bottom=0;right=0;" parent="NPs0PZWvJLxieHYWrK92-39" vertex="1">
          <mxGeometry width="30" height="30" as="geometry">
            <mxRectangle width="30" height="30" as="alternateBounds" />
          </mxGeometry>
        </mxCell>
        <mxCell id="NPs0PZWvJLxieHYWrK92-41" value="email VARCHAR (UNIQUE)" style="shape=partialRectangle;overflow=hidden;connectable=0;fillColor=none;top=0;left=0;bottom=0;right=0;align=left;spacingLeft=6;" parent="NPs0PZWvJLxieHYWrK92-39" vertex="1">
          <mxGeometry x="30" width="330" height="30" as="geometry">
            <mxRectangle width="330" height="30" as="alternateBounds" />
          </mxGeometry>
        </mxCell>
        <mxCell id="NPs0PZWvJLxieHYWrK92-42" value="" style="shape=partialRectangle;collapsible=0;dropTarget=0;pointerEvents=0;fillColor=none;points=[[0,0.5],[1,0.5]];portConstraint=eastwest;top=0;left=0;right=0;bottom=0;" parent="NPs0PZWvJLxieHYWrK92-29" vertex="1">
          <mxGeometry y="120" width="360" height="30" as="geometry" />
        </mxCell>
        <mxCell id="NPs0PZWvJLxieHYWrK92-43" value="" style="shape=partialRectangle;overflow=hidden;connectable=0;fillColor=none;top=0;left=0;bottom=0;right=0;" parent="NPs0PZWvJLxieHYWrK92-42" vertex="1">
          <mxGeometry width="30" height="30" as="geometry">
            <mxRectangle width="30" height="30" as="alternateBounds" />
          </mxGeometry>
        </mxCell>
        <mxCell id="NPs0PZWvJLxieHYWrK92-44" value="phone VARCHAR (UNIQUE, NOTÂ  NULL)" style="shape=partialRectangle;overflow=hidden;connectable=0;fillColor=none;top=0;left=0;bottom=0;right=0;align=left;spacingLeft=6;" parent="NPs0PZWvJLxieHYWrK92-42" vertex="1">
          <mxGeometry x="30" width="330" height="30" as="geometry">
            <mxRectangle width="330" height="30" as="alternateBounds" />
          </mxGeometry>
        </mxCell>
        <mxCell id="NPs0PZWvJLxieHYWrK92-45" value="" style="shape=partialRectangle;collapsible=0;dropTarget=0;pointerEvents=0;fillColor=none;points=[[0,0.5],[1,0.5]];portConstraint=eastwest;top=0;left=0;right=0;bottom=0;" parent="NPs0PZWvJLxieHYWrK92-29" vertex="1">
          <mxGeometry y="150" width="360" height="30" as="geometry" />
        </mxCell>
        <mxCell id="NPs0PZWvJLxieHYWrK92-46" value="" style="shape=partialRectangle;overflow=hidden;connectable=0;fillColor=none;top=0;left=0;bottom=0;right=0;" parent="NPs0PZWvJLxieHYWrK92-45" vertex="1">
          <mxGeometry width="30" height="30" as="geometry">
            <mxRectangle width="30" height="30" as="alternateBounds" />
          </mxGeometry>
        </mxCell>
        <mxCell id="NPs0PZWvJLxieHYWrK92-47" value="personType VARCHAR CHECK (personType&#xa;IN (&#39;Author&#39;, &#39;Customer&#39;, &#39;Employee&#39;))" style="shape=partialRectangle;overflow=hidden;connectable=0;fillColor=none;top=0;left=0;bottom=0;right=0;align=left;spacingLeft=6;" parent="NPs0PZWvJLxieHYWrK92-45" vertex="1">
          <mxGeometry x="30" width="330" height="30" as="geometry">
            <mxRectangle width="330" height="30" as="alternateBounds" />
          </mxGeometry>
        </mxCell>
        <mxCell id="NPs0PZWvJLxieHYWrK92-48" value="category" style="shape=table;startSize=30;container=1;collapsible=1;childLayout=tableLayout;fixedRows=1;rowLines=0;fontStyle=1;align=center;resizeLast=1;" parent="1" vertex="1">
          <mxGeometry x="460" y="740" width="330" height="100" as="geometry" />
        </mxCell>
        <mxCell id="NPs0PZWvJLxieHYWrK92-49" value="" style="shape=partialRectangle;collapsible=0;dropTarget=0;pointerEvents=0;fillColor=none;points=[[0,0.5],[1,0.5]];portConstraint=eastwest;top=0;left=0;right=0;bottom=1;" parent="NPs0PZWvJLxieHYWrK92-48" vertex="1">
          <mxGeometry y="30" width="330" height="30" as="geometry" />
        </mxCell>
        <mxCell id="NPs0PZWvJLxieHYWrK92-50" value="PK" style="shape=partialRectangle;overflow=hidden;connectable=0;fillColor=none;top=0;left=0;bottom=0;right=0;fontStyle=1;" parent="NPs0PZWvJLxieHYWrK92-49" vertex="1">
          <mxGeometry width="30" height="30" as="geometry">
            <mxRectangle width="30" height="30" as="alternateBounds" />
          </mxGeometry>
        </mxCell>
        <mxCell id="NPs0PZWvJLxieHYWrK92-51" value="categoryIDÂ int NOT NULL " style="shape=partialRectangle;overflow=hidden;connectable=0;fillColor=none;top=0;left=0;bottom=0;right=0;align=left;spacingLeft=6;fontStyle=5;" parent="NPs0PZWvJLxieHYWrK92-49" vertex="1">
          <mxGeometry x="30" width="300" height="30" as="geometry">
            <mxRectangle width="300" height="30" as="alternateBounds" />
          </mxGeometry>
        </mxCell>
        <mxCell id="NPs0PZWvJLxieHYWrK92-52" value="" style="shape=partialRectangle;collapsible=0;dropTarget=0;pointerEvents=0;fillColor=none;points=[[0,0.5],[1,0.5]];portConstraint=eastwest;top=0;left=0;right=0;bottom=0;" parent="NPs0PZWvJLxieHYWrK92-48" vertex="1">
          <mxGeometry y="60" width="330" height="30" as="geometry" />
        </mxCell>
        <mxCell id="NPs0PZWvJLxieHYWrK92-53" value="" style="shape=partialRectangle;overflow=hidden;connectable=0;fillColor=none;top=0;left=0;bottom=0;right=0;" parent="NPs0PZWvJLxieHYWrK92-52" vertex="1">
          <mxGeometry width="30" height="30" as="geometry">
            <mxRectangle width="30" height="30" as="alternateBounds" />
          </mxGeometry>
        </mxCell>
        <mxCell id="NPs0PZWvJLxieHYWrK92-54" value="categoryNameÂ varchar NOT NULL" style="shape=partialRectangle;overflow=hidden;connectable=0;fillColor=none;top=0;left=0;bottom=0;right=0;align=left;spacingLeft=6;" parent="NPs0PZWvJLxieHYWrK92-52" vertex="1">
          <mxGeometry x="30" width="300" height="30" as="geometry">
            <mxRectangle width="300" height="30" as="alternateBounds" />
          </mxGeometry>
        </mxCell>
        <mxCell id="NPs0PZWvJLxieHYWrK92-68" value="Transaction details" style="shape=table;startSize=30;container=1;collapsible=1;childLayout=tableLayout;fixedRows=1;rowLines=0;fontStyle=1;align=center;resizeLast=1;" parent="1" vertex="1">
          <mxGeometry x="463" y="890" width="328" height="220" as="geometry" />
        </mxCell>
        <mxCell id="NPs0PZWvJLxieHYWrK92-69" value="" style="shape=partialRectangle;collapsible=0;dropTarget=0;pointerEvents=0;fillColor=none;points=[[0,0.5],[1,0.5]];portConstraint=eastwest;top=0;left=0;right=0;bottom=1;" parent="NPs0PZWvJLxieHYWrK92-68" vertex="1">
          <mxGeometry y="30" width="328" height="30" as="geometry" />
        </mxCell>
        <mxCell id="NPs0PZWvJLxieHYWrK92-70" value="PK" style="shape=partialRectangle;overflow=hidden;connectable=0;fillColor=none;top=0;left=0;bottom=0;right=0;fontStyle=1;" parent="NPs0PZWvJLxieHYWrK92-69" vertex="1">
          <mxGeometry width="30" height="30" as="geometry">
            <mxRectangle width="30" height="30" as="alternateBounds" />
          </mxGeometry>
        </mxCell>
        <mxCell id="NPs0PZWvJLxieHYWrK92-71" value="detailIDÂ int NOT NULL " style="shape=partialRectangle;overflow=hidden;connectable=0;fillColor=none;top=0;left=0;bottom=0;right=0;align=left;spacingLeft=6;fontStyle=5;" parent="NPs0PZWvJLxieHYWrK92-69" vertex="1">
          <mxGeometry x="30" width="298" height="30" as="geometry">
            <mxRectangle width="298" height="30" as="alternateBounds" />
          </mxGeometry>
        </mxCell>
        <mxCell id="NPs0PZWvJLxieHYWrK92-72" value="" style="shape=partialRectangle;collapsible=0;dropTarget=0;pointerEvents=0;fillColor=none;points=[[0,0.5],[1,0.5]];portConstraint=eastwest;top=0;left=0;right=0;bottom=0;" parent="NPs0PZWvJLxieHYWrK92-68" vertex="1">
          <mxGeometry y="60" width="328" height="30" as="geometry" />
        </mxCell>
        <mxCell id="NPs0PZWvJLxieHYWrK92-73" value="" style="shape=partialRectangle;overflow=hidden;connectable=0;fillColor=none;top=0;left=0;bottom=0;right=0;" parent="NPs0PZWvJLxieHYWrK92-72" vertex="1">
          <mxGeometry width="30" height="30" as="geometry">
            <mxRectangle width="30" height="30" as="alternateBounds" />
          </mxGeometry>
        </mxCell>
        <mxCell id="NPs0PZWvJLxieHYWrK92-74" value="quantityÂ INT CHECK (quantity &gt; 0)" style="shape=partialRectangle;overflow=hidden;connectable=0;fillColor=none;top=0;left=0;bottom=0;right=0;align=left;spacingLeft=6;" parent="NPs0PZWvJLxieHYWrK92-72" vertex="1">
          <mxGeometry x="30" width="298" height="30" as="geometry">
            <mxRectangle width="298" height="30" as="alternateBounds" />
          </mxGeometry>
        </mxCell>
        <mxCell id="NPs0PZWvJLxieHYWrK92-75" value="" style="shape=partialRectangle;collapsible=0;dropTarget=0;pointerEvents=0;fillColor=none;points=[[0,0.5],[1,0.5]];portConstraint=eastwest;top=0;left=0;right=0;bottom=0;" parent="NPs0PZWvJLxieHYWrK92-68" vertex="1">
          <mxGeometry y="90" width="328" height="30" as="geometry" />
        </mxCell>
        <mxCell id="NPs0PZWvJLxieHYWrK92-76" value="" style="shape=partialRectangle;overflow=hidden;connectable=0;fillColor=none;top=0;left=0;bottom=0;right=0;" parent="NPs0PZWvJLxieHYWrK92-75" vertex="1">
          <mxGeometry width="30" height="30" as="geometry">
            <mxRectangle width="30" height="30" as="alternateBounds" />
          </mxGeometry>
        </mxCell>
        <mxCell id="NPs0PZWvJLxieHYWrK92-77" value="transactionID INT (NOT NULL)" style="shape=partialRectangle;overflow=hidden;connectable=0;fillColor=none;top=0;left=0;bottom=0;right=0;align=left;spacingLeft=6;" parent="NPs0PZWvJLxieHYWrK92-75" vertex="1">
          <mxGeometry x="30" width="298" height="30" as="geometry">
            <mxRectangle width="298" height="30" as="alternateBounds" />
          </mxGeometry>
        </mxCell>
        <mxCell id="NPs0PZWvJLxieHYWrK92-78" value="" style="shape=partialRectangle;collapsible=0;dropTarget=0;pointerEvents=0;fillColor=none;points=[[0,0.5],[1,0.5]];portConstraint=eastwest;top=0;left=0;right=0;bottom=0;" parent="NPs0PZWvJLxieHYWrK92-68" vertex="1">
          <mxGeometry y="120" width="328" height="30" as="geometry" />
        </mxCell>
        <mxCell id="NPs0PZWvJLxieHYWrK92-79" value="" style="shape=partialRectangle;overflow=hidden;connectable=0;fillColor=none;top=0;left=0;bottom=0;right=0;" parent="NPs0PZWvJLxieHYWrK92-78" vertex="1">
          <mxGeometry width="30" height="30" as="geometry">
            <mxRectangle width="30" height="30" as="alternateBounds" />
          </mxGeometry>
        </mxCell>
        <mxCell id="NPs0PZWvJLxieHYWrK92-80" value="bookID int" style="shape=partialRectangle;overflow=hidden;connectable=0;fillColor=none;top=0;left=0;bottom=0;right=0;align=left;spacingLeft=6;" parent="NPs0PZWvJLxieHYWrK92-78" vertex="1">
          <mxGeometry x="30" width="298" height="30" as="geometry">
            <mxRectangle width="298" height="30" as="alternateBounds" />
          </mxGeometry>
        </mxCell>
        <mxCell id="NPs0PZWvJLxieHYWrK92-81" value="" style="shape=partialRectangle;collapsible=0;dropTarget=0;pointerEvents=0;fillColor=none;points=[[0,0.5],[1,0.5]];portConstraint=eastwest;top=0;left=0;right=0;bottom=0;" parent="NPs0PZWvJLxieHYWrK92-68" vertex="1">
          <mxGeometry y="150" width="328" height="30" as="geometry" />
        </mxCell>
        <mxCell id="NPs0PZWvJLxieHYWrK92-82" value="" style="shape=partialRectangle;overflow=hidden;connectable=0;fillColor=none;top=0;left=0;bottom=0;right=0;" parent="NPs0PZWvJLxieHYWrK92-81" vertex="1">
          <mxGeometry width="30" height="30" as="geometry">
            <mxRectangle width="30" height="30" as="alternateBounds" />
          </mxGeometry>
        </mxCell>
        <mxCell id="NPs0PZWvJLxieHYWrK92-83" value="transactionDate datetime" style="shape=partialRectangle;overflow=hidden;connectable=0;fillColor=none;top=0;left=0;bottom=0;right=0;align=left;spacingLeft=6;" parent="NPs0PZWvJLxieHYWrK92-81" vertex="1">
          <mxGeometry x="30" width="298" height="30" as="geometry">
            <mxRectangle width="298" height="30" as="alternateBounds" />
          </mxGeometry>
        </mxCell>
        <mxCell id="NPs0PZWvJLxieHYWrK92-84" value="" style="shape=partialRectangle;collapsible=0;dropTarget=0;pointerEvents=0;fillColor=none;points=[[0,0.5],[1,0.5]];portConstraint=eastwest;top=0;left=0;right=0;bottom=0;" parent="NPs0PZWvJLxieHYWrK92-68" vertex="1">
          <mxGeometry y="180" width="328" height="30" as="geometry" />
        </mxCell>
        <mxCell id="NPs0PZWvJLxieHYWrK92-85" value="" style="shape=partialRectangle;overflow=hidden;connectable=0;fillColor=none;top=0;left=0;bottom=0;right=0;" parent="NPs0PZWvJLxieHYWrK92-84" vertex="1">
          <mxGeometry width="30" height="30" as="geometry">
            <mxRectangle width="30" height="30" as="alternateBounds" />
          </mxGeometry>
        </mxCell>
        <mxCell id="NPs0PZWvJLxieHYWrK92-86" value="amount decimal (CHECK amount &gt;= 0)" style="shape=partialRectangle;overflow=hidden;connectable=0;fillColor=none;top=0;left=0;bottom=0;right=0;align=left;spacingLeft=6;" parent="NPs0PZWvJLxieHYWrK92-84" vertex="1">
          <mxGeometry x="30" width="298" height="30" as="geometry">
            <mxRectangle width="298" height="30" as="alternateBounds" />
          </mxGeometry>
        </mxCell>
        <mxCell id="NPs0PZWvJLxieHYWrK92-88" value="FK" style="shape=partialRectangle;overflow=hidden;connectable=0;fillColor=none;top=1;left=0;bottom=1;right=0;" parent="1" vertex="1">
          <mxGeometry x="463" y="1015" width="30" height="30" as="geometry">
            <mxRectangle width="30" height="30" as="alternateBounds" />
          </mxGeometry>
        </mxCell>
        <mxCell id="NPs0PZWvJLxieHYWrK92-89" value="FK" style="shape=partialRectangle;overflow=hidden;connectable=0;fillColor=none;top=1;left=0;bottom=1;right=0;" parent="1" vertex="1">
          <mxGeometry x="463" y="985" width="30" height="30" as="geometry">
            <mxRectangle width="30" height="30" as="alternateBounds" />
          </mxGeometry>
        </mxCell>
        <mxCell id="NPs0PZWvJLxieHYWrK92-90" value="Author" style="shape=table;startSize=30;container=1;collapsible=1;childLayout=tableLayout;fixedRows=1;rowLines=0;fontStyle=1;align=center;resizeLast=1;" parent="1" vertex="1">
          <mxGeometry x="30" y="1015" width="360" height="130" as="geometry" />
        </mxCell>
        <mxCell id="NPs0PZWvJLxieHYWrK92-91" value="" style="shape=partialRectangle;collapsible=0;dropTarget=0;pointerEvents=0;fillColor=none;points=[[0,0.5],[1,0.5]];portConstraint=eastwest;top=0;left=0;right=0;bottom=1;" parent="NPs0PZWvJLxieHYWrK92-90" vertex="1">
          <mxGeometry y="30" width="360" height="30" as="geometry" />
        </mxCell>
        <mxCell id="NPs0PZWvJLxieHYWrK92-92" value="PK" style="shape=partialRectangle;overflow=hidden;connectable=0;fillColor=none;top=0;left=0;bottom=0;right=0;fontStyle=1;" parent="NPs0PZWvJLxieHYWrK92-91" vertex="1">
          <mxGeometry width="30" height="30" as="geometry">
            <mxRectangle width="30" height="30" as="alternateBounds" />
          </mxGeometry>
        </mxCell>
        <mxCell id="NPs0PZWvJLxieHYWrK92-93" value="authorIDÂ int NOT NULL " style="shape=partialRectangle;overflow=hidden;connectable=0;fillColor=none;top=0;left=0;bottom=0;right=0;align=left;spacingLeft=6;fontStyle=5;" parent="NPs0PZWvJLxieHYWrK92-91" vertex="1">
          <mxGeometry x="30" width="330" height="30" as="geometry">
            <mxRectangle width="330" height="30" as="alternateBounds" />
          </mxGeometry>
        </mxCell>
        <mxCell id="NPs0PZWvJLxieHYWrK92-94" value="" style="shape=partialRectangle;collapsible=0;dropTarget=0;pointerEvents=0;fillColor=none;points=[[0,0.5],[1,0.5]];portConstraint=eastwest;top=0;left=0;right=0;bottom=0;" parent="NPs0PZWvJLxieHYWrK92-90" vertex="1">
          <mxGeometry y="60" width="360" height="30" as="geometry" />
        </mxCell>
        <mxCell id="NPs0PZWvJLxieHYWrK92-95" value="" style="shape=partialRectangle;overflow=hidden;connectable=0;fillColor=none;top=0;left=0;bottom=0;right=0;" parent="NPs0PZWvJLxieHYWrK92-94" vertex="1">
          <mxGeometry width="30" height="30" as="geometry">
            <mxRectangle width="30" height="30" as="alternateBounds" />
          </mxGeometry>
        </mxCell>
        <mxCell id="NPs0PZWvJLxieHYWrK92-96" value="biographyÂ text" style="shape=partialRectangle;overflow=hidden;connectable=0;fillColor=none;top=0;left=0;bottom=0;right=0;align=left;spacingLeft=6;" parent="NPs0PZWvJLxieHYWrK92-94" vertex="1">
          <mxGeometry x="30" width="330" height="30" as="geometry">
            <mxRectangle width="330" height="30" as="alternateBounds" />
          </mxGeometry>
        </mxCell>
        <mxCell id="NPs0PZWvJLxieHYWrK92-98" value="" style="shape=partialRectangle;collapsible=0;dropTarget=0;pointerEvents=0;fillColor=none;points=[[0,0.5],[1,0.5]];portConstraint=eastwest;top=0;left=0;right=0;bottom=0;" parent="NPs0PZWvJLxieHYWrK92-90" vertex="1">
          <mxGeometry y="90" width="360" height="30" as="geometry" />
        </mxCell>
        <mxCell id="NPs0PZWvJLxieHYWrK92-99" value="" style="shape=partialRectangle;overflow=hidden;connectable=0;fillColor=none;top=0;left=0;bottom=0;right=0;" parent="NPs0PZWvJLxieHYWrK92-98" vertex="1">
          <mxGeometry width="30" height="30" as="geometry">
            <mxRectangle width="30" height="30" as="alternateBounds" />
          </mxGeometry>
        </mxCell>
        <mxCell id="NPs0PZWvJLxieHYWrK92-100" value="personIDÂ int" style="shape=partialRectangle;overflow=hidden;connectable=0;fillColor=none;top=0;left=0;bottom=0;right=0;align=left;spacingLeft=6;" parent="NPs0PZWvJLxieHYWrK92-98" vertex="1">
          <mxGeometry x="30" width="330" height="30" as="geometry">
            <mxRectangle width="330" height="30" as="alternateBounds" />
          </mxGeometry>
        </mxCell>
        <mxCell id="NPs0PZWvJLxieHYWrK92-101" value="FK" style="shape=partialRectangle;overflow=hidden;connectable=0;fillColor=none;top=1;left=0;bottom=1;right=0;" parent="1" vertex="1">
          <mxGeometry x="30" y="1070" width="30" height="30" as="geometry">
            <mxRectangle width="30" height="30" as="alternateBounds" />
          </mxGeometry>
        </mxCell>
        <mxCell id="NPs0PZWvJLxieHYWrK92-102" style="edgeStyle=orthogonalEdgeStyle;rounded=0;orthogonalLoop=1;jettySize=auto;html=1;entryX=0;entryY=0.5;entryDx=0;entryDy=0;" parent="1" source="NPs0PZWvJLxieHYWrK92-98" target="NPs0PZWvJLxieHYWrK92-30" edge="1">
          <mxGeometry relative="1" as="geometry">
            <Array as="points">
              <mxPoint x="410" y="1120" />
              <mxPoint x="410" y="990" />
              <mxPoint x="20" y="990" />
              <mxPoint x="20" y="825" />
            </Array>
          </mxGeometry>
        </mxCell>
        <mxCell id="NPs0PZWvJLxieHYWrK92-103" style="edgeStyle=orthogonalEdgeStyle;rounded=0;orthogonalLoop=1;jettySize=auto;html=1;entryX=0.994;entryY=0.26;entryDx=0;entryDy=0;entryPerimeter=0;" parent="1" edge="1">
          <mxGeometry relative="1" as="geometry">
            <mxPoint x="358.00199999999995" y="342.79999999999995" as="targetPoint" />
            <mxPoint x="474.97" y="995" as="sourcePoint" />
            <Array as="points">
              <mxPoint x="430" y="995" />
              <mxPoint x="430" y="343" />
            </Array>
          </mxGeometry>
        </mxCell>
        <mxCell id="NPs0PZWvJLxieHYWrK92-104" style="edgeStyle=orthogonalEdgeStyle;rounded=0;orthogonalLoop=1;jettySize=auto;html=1;entryX=1;entryY=0.5;entryDx=0;entryDy=0;" parent="1" source="NPs0PZWvJLxieHYWrK92-78" target="C-vyLk0tnHw3VtMMgP7b-24" edge="1">
          <mxGeometry relative="1" as="geometry">
            <Array as="points">
              <mxPoint x="420" y="1025" />
              <mxPoint x="420" y="65" />
            </Array>
          </mxGeometry>
        </mxCell>
        <mxCell id="NPs0PZWvJLxieHYWrK92-105" style="edgeStyle=orthogonalEdgeStyle;rounded=0;orthogonalLoop=1;jettySize=auto;html=1;entryX=0;entryY=0.5;entryDx=0;entryDy=0;" parent="1" source="cVbe3402FyO1d1cokief-103" target="cVbe3402FyO1d1cokief-70" edge="1">
          <mxGeometry relative="1" as="geometry" />
        </mxCell>
        <mxCell id="NPs0PZWvJLxieHYWrK92-106" style="edgeStyle=orthogonalEdgeStyle;rounded=0;orthogonalLoop=1;jettySize=auto;html=1;entryX=0;entryY=0.5;entryDx=0;entryDy=0;" parent="1" source="cVbe3402FyO1d1cokief-128" target="C-vyLk0tnHw3VtMMgP7b-3" edge="1">
          <mxGeometry relative="1" as="geometry">
            <Array as="points">
              <mxPoint x="440" y="575" />
              <mxPoint x="440" y="65" />
            </Array>
          </mxGeometry>
        </mxCell>
        <mxCell id="NPs0PZWvJLxieHYWrK92-107" style="edgeStyle=orthogonalEdgeStyle;rounded=0;orthogonalLoop=1;jettySize=auto;html=1;exitX=0;exitY=0.5;exitDx=0;exitDy=0;entryX=0.988;entryY=0.26;entryDx=0;entryDy=0;entryPerimeter=0;" parent="1" source="cVbe3402FyO1d1cokief-125" target="cVbe3402FyO1d1cokief-70" edge="1">
          <mxGeometry relative="1" as="geometry">
            <Array as="points">
              <mxPoint x="430" y="545" />
              <mxPoint x="430" y="343" />
            </Array>
          </mxGeometry>
        </mxCell>
        <mxCell id="NPs0PZWvJLxieHYWrK92-108" style="edgeStyle=orthogonalEdgeStyle;rounded=0;orthogonalLoop=1;jettySize=auto;html=1;entryX=1;entryY=0.5;entryDx=0;entryDy=0;" parent="1" source="NPs0PZWvJLxieHYWrK92-25" target="NPs0PZWvJLxieHYWrK92-30" edge="1">
          <mxGeometry relative="1" as="geometry">
            <Array as="points">
              <mxPoint x="410" y="155" />
              <mxPoint x="410" y="825" />
            </Array>
          </mxGeometry>
        </mxCell>
        <mxCell id="NPs0PZWvJLxieHYWrK92-109" style="edgeStyle=orthogonalEdgeStyle;rounded=0;orthogonalLoop=1;jettySize=auto;html=1;entryX=1;entryY=0.5;entryDx=0;entryDy=0;" parent="1" source="cVbe3402FyO1d1cokief-7" target="NPs0PZWvJLxieHYWrK92-91" edge="1">
          <mxGeometry relative="1" as="geometry">
            <Array as="points">
              <mxPoint x="410" y="125" />
              <mxPoint x="410" y="1050" />
              <mxPoint x="390" y="1050" />
            </Array>
          </mxGeometry>
        </mxCell>
        <mxCell id="NPs0PZWvJLxieHYWrK92-110" style="edgeStyle=orthogonalEdgeStyle;rounded=0;orthogonalLoop=1;jettySize=auto;html=1;entryX=0;entryY=0.5;entryDx=0;entryDy=0;" parent="1" source="cVbe3402FyO1d1cokief-23" target="NPs0PZWvJLxieHYWrK92-49" edge="1">
          <mxGeometry relative="1" as="geometry" />
        </mxCell>
      </root>
    </mxGraphModel>
  </diagram>
</mxfile>
